<svg width="55" height="50" viewBox="0 0 55 50" fill="none" xmlns="http://www.w3.org/2000/svg">
<g id="&#240;&#159;&#166;&#134; icon &#34;heart&#34;">
<path id="Vector 1" d="M18.4485 29.9924C17.742 29.8746 17.2797 29.0399 16.881 28.5274C16.6407 28.2184 16.472 27.7725 16.1697 27.5206C16.0376 27.4106 15.8401 27.3729 15.7416 27.2252C15.1612 26.3546 14.5652 25.5096 13.939 24.6509C13.6938 24.3146 13.5676 23.8185 13.4025 23.4331C13.2161 22.9983 12.773 22.7822 12.474 22.4384C11.6335 21.4718 10.9139 20.4923 10.0023 19.5807C9.47206 19.0506 9.26813 18.5931 9.04369 17.9108C8.96656 17.6763 8.82111 17.4715 8.70005 17.2597C8.53025 16.9625 9.33519 17.5456 9.58627 17.7782C10.5271 18.6496 11.0972 20.1766 11.6722 21.311C11.9703 21.8991 12.3062 22.4418 12.6368 23.0111C13.0116 23.6566 13.2579 24.2139 13.3964 24.9463C13.4636 25.3012 13.4247 25.6595 13.4808 26.0134C13.5356 26.3581 13.7624 26.6507 13.8848 26.972C14.1985 27.7956 14.1863 29.2411 14.8735 29.8658C15.0532 30.0292 15.3683 30.4843 15.5668 30.541C15.6211 30.5565 15.0832 30.5585 14.8674 30.4506C14.1422 30.0879 13.5572 29.3278 12.9383 28.7987C12.4762 28.4037 12.094 27.8833 11.5878 27.5568C10.9791 27.164 10.3939 26.7111 9.79125 26.3028C8.7084 25.5692 7.98126 24.102 7.31947 22.999C7.1638 22.7396 6.88701 22.5761 6.77688 22.2877C6.64857 21.9516 6.61511 21.6293 6.4031 21.3231C6.11946 20.9133 5.64471 20.5755 5.48673 20.0872C5.04688 18.7276 5.02597 16.8477 5.55908 15.5355C5.97224 14.5185 5.79214 13.2861 6.53573 12.3523C7.15141 11.5791 7.94848 10.7491 8.84474 10.3507C9.44822 10.0825 10.2831 9.81678 10.798 9.41027C11.2254 9.07291 11.374 8.86998 11.9375 8.72299C12.4027 8.60162 13.095 8.58431 13.517 8.37332C14.2184 8.02264 14.8299 7.74633 15.6753 7.74633C17.6767 7.74633 19.5887 8.08401 21.5774 8.28289C23.5797 8.48312 25.3304 9.45003 27.3831 9.48261C28.0132 9.49261 28.5991 9.6086 29.1978 9.80816C29.8435 10.0234 30.5496 9.87134 31.2174 9.92271C32.5806 10.0276 33.7825 9.56681 35.0939 9.1028C36.3911 8.64378 37.6632 8.34659 39.0306 8.20452C39.6576 8.13938 40.8385 7.98995 41.3818 8.39744C42.0331 8.88589 42.5823 9.24183 43.305 9.60319C43.827 9.86419 44.3027 10.1185 44.8906 10.2422C45.1933 10.306 45.5265 10.3486 45.7466 10.5919C45.8654 10.7232 45.8932 10.9368 46.0722 11.0019C46.6029 11.1948 46.756 12.1871 47.0368 12.6296C47.4058 13.211 47.7227 13.7845 48.134 14.3418C48.3778 14.672 47.9288 14.2635 47.8567 14.1127C47.5707 13.5146 47.2878 12.8935 47.0368 12.2799C46.7004 11.4577 46.355 10.8529 45.7768 10.188C45.3952 9.74913 44.6559 9.52633 44.149 9.25955C42.5451 8.41536 40.7575 7.52348 38.9945 7.06509C37.8386 6.76455 36.4788 6.8782 35.2928 6.8782C34.695 6.8782 34.3634 7.06353 33.8339 7.22786C33.0997 7.4557 32.3346 7.52625 31.6213 7.80059C31.2856 7.92971 30.784 7.98667 30.4276 8.06586C29.7952 8.2064 29.165 8.28892 28.5165 8.28892C28.0958 8.28892 27.1863 8.27605 26.8043 8.42155C25.9149 8.76041 25.0049 9.24708 24.0432 9.26558C22.4309 9.29658 20.8679 8.08719 19.2443 8.63859C16.9953 9.40239 15.5742 11.2905 13.4929 12.3161C13.0714 12.5238 12.6103 12.6726 12.1605 12.8225C11.2824 13.1153 10.459 13.4857 9.5501 13.6907C9.48069 13.7063 8.93722 13.7447 8.90503 13.8896C8.81439 14.2975 9.00751 14.9363 9.00751 15.3667C9.00751 15.658 8.96919 15.9767 9.01354 16.2649C9.05686 16.5465 9.00804 17.1882 9.33307 17.2717C9.75711 17.3808 10.254 17.1034 10.6172 16.9402C11.4472 16.5671 12.2745 16.1406 13.0227 15.6199C13.9681 14.9618 14.7791 14.4514 15.8803 14.1006C17.1291 13.7028 18.3705 13.3633 19.6422 13.0396C20.5436 12.8101 21.4005 12.4993 22.325 12.3583C23.5317 12.1742 24.7314 12.1955 25.9483 12.1955C27.2123 12.1955 28.4763 12.1955 29.7403 12.1955C31.102 12.1955 32.5427 12.3343 33.8941 12.1413C34.8559 12.0039 33.7675 12.087 33.3877 12.087C30.7199 12.087 28.1221 12.5066 25.478 12.8225C24.3653 12.9555 23.6539 13.1388 22.753 13.8112C21.8112 14.5142 20.8908 15.2867 19.9919 16.0419C19.3394 16.59 18.8845 17.3417 18.2315 17.8927C17.5128 18.4991 16.904 19.2744 16.236 19.9425C15.2487 20.9297 14.5419 19.2771 14.5419 18.3871C14.5419 17.8321 14.5305 17.4095 14.9277 18.2122C15.0963 18.5529 15.1111 18.9307 15.2653 19.2673C15.4328 19.6326 15.6768 19.956 15.82 20.3343C16.0934 21.057 16.0865 22.0031 16.5796 22.6253C16.7066 22.7855 16.9701 22.899 17.0257 23.1076C17.1132 23.4354 17.2056 23.6755 17.3633 23.9878C17.7856 24.8237 17.7853 25.6954 18.0265 26.5741C18.2309 27.3187 18.557 28.0777 18.6595 28.8469C18.7113 29.2354 18.7741 29.6677 18.7741 30.0587C18.7741 30.7141 19.0406 31.0857 19.2503 31.6684C19.4291 32.1649 19.3928 32.7181 19.5337 33.2238C19.6498 33.6405 20.0488 33.7805 20.1607 34.116C20.3565 34.7035 20.4297 35.0392 21.0047 35.3097C21.6255 35.6019 22.1098 36.1098 22.741 36.3949C23.1962 36.6005 23.3529 36.9429 23.8684 37.046C24.3385 37.14 24.7998 37.2321 25.1284 37.5826C25.313 37.7795 25.5781 37.7248 25.7433 37.89C26.0909 38.2376 26.3854 38.7782 26.5632 39.2405C26.7033 39.6047 26.8442 40.0729 27.0696 40.3859C27.5582 41.0645 28.2831 40.888 29.041 40.6813C29.7705 40.4824 30.5866 39.9582 31.0486 39.355C32.1138 37.9643 33.571 36.8024 34.8105 35.5629C35.4161 34.9574 36.1022 34.3943 36.7518 33.8387C37.289 33.3791 37.895 33.0608 38.3976 32.5486C38.8256 32.1124 39.2018 31.6183 39.6576 31.2102C40.3298 30.6083 41.0256 30.0751 41.6833 29.4438C42.7796 28.3913 43.6858 27.1764 44.8001 26.1581C46.349 24.7427 47.4891 23.0494 48.9298 21.5401C50.1026 20.3115 50.9164 19.1191 50.8952 17.3803C50.8828 16.3685 50.3258 16.3675 49.4121 16.494C47.628 16.7411 46.1844 17.6203 44.987 18.9357C43.5707 20.4916 42.5612 22.3162 41.3457 24.0179C40.8638 24.6925 40.4359 25.4596 39.8626 26.0616C39.2807 26.6727 38.7369 27.2206 38.2529 27.9185C37.2195 29.4086 35.5572 30.4147 34.2438 31.6443C33.1789 32.6411 32.1152 33.8529 30.7351 34.4175C30.0535 34.6963 29.4302 35.1025 28.7878 35.4604C28.4703 35.6373 28.028 36.1006 27.6725 36.1779C26.7267 36.3835 25.7241 34.6575 25.3695 34.0316C24.5904 32.6568 24.0256 31.1705 23.2293 29.8055C22.9273 29.2877 22.4391 28.8919 22.0778 28.4128C21.5725 27.7428 20.9947 27.1391 20.4802 26.4776C19.742 25.5286 19.3744 24.3968 18.557 23.4934C18.115 23.0048 17.7981 22.5761 17.5322 21.9681C17.461 21.8054 17.2462 21.2341 17.3031 21.094C17.7618 19.9625 19.5046 19.5009 20.5345 19.1406C22.1028 18.5921 23.7496 18.1098 25.3454 17.6455C26.6273 17.2726 27.7444 16.4131 29.035 16.0419C30.8069 15.5322 32.3958 14.5277 34.0147 13.6666C35.0944 13.0923 36.3535 12.5919 37.5536 12.3643C38.2636 12.2297 39.0452 11.9785 39.7601 11.9785C40.4987 11.9785 41.0813 12.0758 41.6592 12.6055C42.333 13.2231 43.0463 13.7501 43.6969 14.39C44.1592 14.8447 44.8023 15.2338 45.3608 15.5596C46.1944 16.0458 46.0605 16.9607 45.9878 17.8264C45.8676 19.2579 44.2484 20.2047 43.2688 21.0698C41.7751 22.389 39.9228 23.0596 38.3856 24.3012C36.3264 25.9644 34.4939 27.8447 32.3628 29.4317C30.7859 30.606 29.1768 31.8448 28.0101 33.4529C27.8703 33.6456 27.7895 33.9189 27.564 34.0316C27.3377 34.1448 27.5817 33.5204 27.6544 33.278C28.141 31.6561 28.9331 30.1278 29.6861 28.6178C30.5041 26.9775 31.3254 25.3032 32.3267 23.7647C33.0929 22.5874 34.1023 21.8528 35.2205 21.0337C36.3598 20.1991 37.4051 19.2407 38.5905 18.4715C39.2163 18.0654 39.7641 17.6622 40.2364 17.0788C40.5193 16.7293 39.7572 17.8449 39.5853 18.2605C39.1634 19.2804 38.8323 20.3313 38.7593 21.4376C38.712 22.156 38.5205 24.0635 39.5491 22.6011C40.7373 20.9119 42.2667 17.9899 41.3818 15.8731C40.6811 14.1966 37.9653 14.4697 36.601 14.7698C34.9574 15.1314 33.0892 16.0419 32.3628 17.6696C31.691 19.1752 32.03 20.9399 32.8271 22.3178C33.0806 22.7561 33.4845 23.3847 34.0328 23.4994C35.0275 23.7076 36.0709 22.1867 36.4142 21.4798C37.1259 20.0141 36.8423 18.2669 36.0705 16.8859C35.483 15.8345 33.2412 17.6508 32.821 17.9711C31.581 18.9162 30.4543 20.0422 29.5293 21.2989C28.6818 22.4505 27.5198 24.2406 27.5579 25.7783C27.5974 27.3711 30.6055 24.7935 30.8798 24.5183C32.1038 23.29 32.6116 21.7738 31.2174 20.4549C29.7291 19.0471 27.166 19.3388 25.3936 19.9726C22.729 20.9255 20.4411 24.2746 22.5481 26.8273C22.5782 26.8638 23.1029 27.53 23.2836 27.3638C23.9575 26.7438 24.1718 24.9949 24.206 24.1867C24.2563 22.9979 23.942 21.737 23.2474 20.7564C22.9735 20.3697 22.5808 21.4589 22.3973 21.8958C21.1283 24.9173 21.8889 28.088 25.1585 29.2026C27.2856 29.9278 27.639 26.4491 26.7923 25.1453C26.4763 24.6586 26.2122 26.1806 26.1291 26.7549C25.9768 27.8077 25.7981 29.373 26.5391 30.2818C26.557 30.3037 26.9973 30.5118 26.9973 30.4445C26.9973 30.3071 26.9189 30.1808 26.8888 30.0466C26.6314 28.9028 26.4039 27.77 26.0327 26.6525C25.2683 24.3515 24.2689 21.4154 22.1984 19.9364C21.3003 19.2949 20.2086 19.0796 19.2564 18.5498C16.8194 17.1939 14.6374 15.1853 12.7514 13.1541C12.2306 12.5933 11.8108 11.9683 11.214 11.4842C10.8538 11.1919 11.4214 10.8341 11.6541 10.6763C14.0582 9.04689 17.3455 8.45601 20.2089 8.40347C22.0155 8.37032 23.814 8.4041 25.6107 8.15629C26.87 7.98259 28.125 7.51699 29.3605 7.20375C30.1231 7.01043 30.8543 6.69771 31.6153 6.49236C32.0002 6.3885 32.4028 6.51553 32.7728 6.35972C33.0654 6.23652 33.5522 6.33561 33.864 6.33561C34.6638 6.33561 35.4636 6.33561 36.2634 6.33561C37.0635 6.33561 37.08 8.29178 37.0713 8.80136C37.0224 11.6591 35.595 13.8525 34.1353 16.1685C32.8733 18.1709 31.7343 20.3623 31.0848 22.6494C30.629 24.2541 29.83 27.206 31.3259 28.4731C33.3182 30.1608 35.9435 27.6851 37.2099 26.2787C38.3892 24.9691 39.4143 23.5064 40.6343 22.2394C40.6361 22.2375 41.0599 21.7788 40.8393 21.9259C39.7678 22.6402 38.9035 23.7554 38.06 24.7052C37.176 25.7005 37.5307 25.3158 36.7277 26.1882C36.5468 26.3847 36.0029 26.8301 36.2695 26.8454C36.9818 26.8861 37.9873 24.6933 38.1866 24.3736C39.7969 21.7906 41.7942 19.0914 42.6358 16.1263C42.6842 15.956 42.7846 15.5579 42.6117 15.5958C42.0539 15.7178 40.9953 16.9623 40.7488 17.2235C37.9735 20.1646 35.5353 23.4904 33.3033 26.8574C32.9762 27.351 32.7753 27.6632 32.6583 28.1898C32.6364 28.2882 32.385 28.272 32.3267 28.2862C31.3669 28.5203 30.4796 29.1127 29.8187 29.8356C28.3869 31.4019 28.5501 33.0229 28.2754 34.9601C28.067 36.4291 27.5357 37.8533 26.9852 39.2163C26.9531 39.296 26.586 40.2654 26.7199 40.3859C26.7851 40.4446 26.9665 40.4139 27.0455 40.4342C27.3374 40.5088 27.4357 40.6988 27.57 40.9406C27.6631 41.1081 27.8911 41.1218 27.9739 41.2782C28.0199 41.3651 27.8198 41.421 27.7931 41.5012C27.7562 41.6117 28.287 42.1601 27.6243 41.7183C27.5062 41.6396 27.9878 41.7314 28.0222 41.869C28.0929 42.1521 28.2467 43.0363 27.7569 42.4839C26.6072 41.1875 25.3175 39.9232 24.0432 38.7582C23.3917 38.1626 22.7848 37.6186 22.2888 36.8893C21.9219 36.3497 21.4415 35.9806 21.0047 35.5207C19.4834 33.9194 18.0902 32.1864 16.7062 30.4747C15.9873 29.5855 15.3769 28.6231 14.6866 27.7135C14.14 26.9933 13.5588 26.3682 13.1493 25.5492C12.7902 24.831 12.5284 24.0829 12.2389 23.3367C11.6487 21.8152 11.086 20.4396 10.8161 18.803C10.6122 17.5661 10.4648 16.3418 10.0565 15.1496C9.95701 14.8591 9.79971 14.5668 9.76714 14.2574C9.7399 13.9987 9.31883 13.4146 9.16426 13.1782C8.88638 12.7532 8.64595 12.6405 8.14541 12.8346C6.88002 13.3252 5.20941 14.272 5.20941 15.7766C5.20941 15.8899 5.12838 16.6539 5.1853 16.1986C5.23568 15.7955 5.20941 15.3748 5.20941 14.9688C5.20941 14.0679 5.28289 13.1975 5.31793 12.3041C5.32752 12.0595 5.46387 11.5411 5.60128 11.3274C5.7398 11.1119 6.00939 11.0729 6.2343 11.0019C6.91006 10.7885 7.4733 10.3614 8.06703 9.98902C9.50066 9.08997 11.2231 8.86806 12.7272 8.06586C13.452 7.67934 13.9333 7.42325 14.7589 7.28815C15.2151 7.21351 15.6482 7.20375 16.1094 7.20375C17.0135 7.20375 17.943 7.26405 18.8344 7.42078C19.6638 7.56662 20.3483 7.92908 21.1494 8.13217C21.7265 8.27849 22.328 8.22323 22.9038 8.34318C23.5315 8.47397 24.1253 8.67071 24.7666 8.72902C25.1109 8.76031 25.425 8.87275 25.7553 8.96414C26.6452 9.21028 27.5601 9.26521 28.4803 9.24146C30.1043 9.19955 31.7012 8.98504 33.2672 8.55419C33.7901 8.41031 34.3111 8.23742 34.8527 8.1804C35.75 8.08595 36.6051 7.7867 37.4993 7.66193C38.8785 7.46949 39.7503 7.59835 41.0201 8.096C41.7276 8.37325 42.4831 8.64855 43.2387 8.7471C43.8786 8.83058 44.5881 8.87629 45.1799 9.15706C46.2877 9.68252 46.821 11.2798 47.3744 12.286C47.5016 12.5173 47.7962 12.5756 48.0014 12.714C48.2135 12.8571 48.2396 13.1248 48.3933 13.3169C48.7517 13.7649 48.9923 14.2108 49.0564 14.7879C49.1131 15.2976 49.2848 15.9052 49.1107 16.4277C48.9611 16.8765 48.7473 17.2349 48.7248 17.7299C48.7121 18.0107 48.7637 18.2685 48.6163 18.4895" stroke="#1192AE" stroke-width="5" stroke-linecap="round"/>
<path id="Vector" d="M27.1444 4.66268L27.4812 4.96956L27.818 4.66268C30.7694 1.97324 34.5323 0.5 38.4923 0.5C42.7054 0.5 46.6958 2.16227 49.7368 5.18685C56.0343 11.5147 56.0326 21.3798 49.7423 27.6701L29.31 48.1024L29.2842 48.1282L29.2624 48.1575C28.8426 48.7219 28.1945 49.0829 27.4812 49.0829C26.615 49.0829 25.8808 48.6415 25.5048 47.9801L25.4714 47.9214L25.4237 47.8737L5.22016 27.6701L5.22008 27.6701C-1.0705 21.3822 -1.07438 11.5144 5.21456 5.19785C8.26681 2.16209 12.2572 0.5 16.4701 0.5C20.4328 0.5 24.193 1.97321 27.1444 4.66268ZM46.5484 8.37685L46.5467 8.37513C42.1912 4.03983 34.8159 4.02781 30.4539 8.38111L30.4536 8.38146L29.0758 9.75923C28.1937 10.6414 26.7688 10.6414 25.8866 9.75923L24.5088 8.38146C22.3398 6.21242 19.4856 5.01105 16.4701 5.01105C13.4548 5.01105 10.59 6.21228 8.40478 8.38604L8.40295 8.38788C3.91338 12.9005 3.90965 19.9783 8.40925 24.4808L8.40936 24.4809L27.1277 43.1992L27.4812 43.5528L27.8348 43.1992L46.553 24.4809L46.5532 24.4808C51.0531 19.978 51.0487 12.9002 46.5484 8.37685Z" fill="black" stroke="black"/>
</g>
</svg>
