<svg class="heart-svg" width="55" height="51" viewBox="0 0 55 51" fill="none" xmlns="http://www.w3.org/2000/svg">
  <g id="&#240;&#159;&#166;&#134; icon &#34;heart&#34;">
    <path id="heart"
      d="M27.4812 4.79311C24.4391 2.02105 20.5593 0.5 16.4701 0.5C12.1219 0.5 8.00515 2.21669 4.86109 5.34421C-1.62266 11.8555 -1.6199 22.0399 4.8666 28.5237L25.0701 48.7272C25.5386 49.5511 26.4424 50.0829 27.4812 50.0829C28.3685 50.0829 29.1593 49.6338 29.6636 48.9559L50.0958 28.5237C56.5823 22.0372 56.5823 11.8555 50.0903 5.33319C46.9573 2.21669 42.8405 0.5 38.4923 0.5C34.4058 0.5 30.5233 2.02105 27.4812 4.79311ZM46.194 9.22951C50.5009 13.5584 50.5036 20.3205 46.1995 24.6274L27.4812 43.3457L8.76292 24.6274C4.45879 20.3205 4.46154 13.5584 8.75741 9.24053C10.8516 7.15735 13.5906 6.01105 16.4701 6.01105C19.3496 6.01105 22.0776 7.15735 24.1553 9.23502L25.533 10.6128C26.6105 11.6902 28.352 11.6902 29.4294 10.6128L30.8071 9.23502C34.9735 5.07693 42.0331 5.08795 46.194 9.22951Z"
      fill="black" />
  </g>
</svg>
